<mxfile host="app.diagrams.net" modified="2024-07-15T02:43:14.251Z" agent="Mozilla/5.0 (Windows NT 10.0; Win64; x64) AppleWebKit/537.36 (KHTML, like Gecko) Chrome/126.0.0.0 Safari/537.36 Edg/126.0.0.0" etag="FnG4GBQAuO5SIVVpgt6L" version="24.6.5" type="github">
  <diagram name="Page-1" id="SzUQhnGFD8AfJ1YVRt9E">
    <mxGraphModel dx="1261" dy="887" grid="1" gridSize="10" guides="1" tooltips="1" connect="1" arrows="1" fold="1" page="1" pageScale="1" pageWidth="827" pageHeight="1169" math="0" shadow="0">
      <root>
        <mxCell id="0" />
        <mxCell id="1" parent="0" />
        <object label="Front-end Pod&lt;div&gt;&lt;br&gt;&lt;/div&gt;&lt;div&gt;vue + nginx&lt;/div&gt;" pod="" id="14AHIhhmMk3qozCd8esS-1">
          <mxCell style="shape=cube;whiteSpace=wrap;html=1;boundedLbl=1;backgroundOutline=1;darkOpacity=0.05;darkOpacity2=0.1;" vertex="1" parent="1">
            <mxGeometry x="270" y="260" width="110" height="70" as="geometry" />
          </mxCell>
        </object>
        <object label="Front-end Pod&lt;div&gt;&lt;br&gt;&lt;/div&gt;&lt;div&gt;vue + nginx&lt;/div&gt;" pod="" id="14AHIhhmMk3qozCd8esS-2">
          <mxCell style="shape=cube;whiteSpace=wrap;html=1;boundedLbl=1;backgroundOutline=1;darkOpacity=0.05;darkOpacity2=0.1;" vertex="1" parent="1">
            <mxGeometry x="385" y="260" width="110" height="70" as="geometry" />
          </mxCell>
        </object>
        <object label="Front-end Pod&lt;div&gt;&lt;br&gt;&lt;/div&gt;&lt;div&gt;vue + nginx&lt;/div&gt;" pod="" id="14AHIhhmMk3qozCd8esS-3">
          <mxCell style="shape=cube;whiteSpace=wrap;html=1;boundedLbl=1;backgroundOutline=1;darkOpacity=0.05;darkOpacity2=0.1;" vertex="1" parent="1">
            <mxGeometry x="500" y="260" width="110" height="70" as="geometry" />
          </mxCell>
        </object>
        <mxCell id="14AHIhhmMk3qozCd8esS-4" value="&lt;div&gt;&lt;br&gt;&lt;/div&gt;service&lt;div&gt;&lt;br&gt;&lt;/div&gt;&lt;div&gt;LoadBalancer&lt;/div&gt;" style="shape=note;whiteSpace=wrap;html=1;backgroundOutline=1;darkOpacity=0.05;" vertex="1" parent="1">
          <mxGeometry x="385" y="120" width="80" height="90" as="geometry" />
        </mxCell>
        <mxCell id="14AHIhhmMk3qozCd8esS-5" value="" style="endArrow=classic;html=1;rounded=0;exitX=0;exitY=1;exitDx=0;exitDy=0;exitPerimeter=0;entryX=0;entryY=0;entryDx=45;entryDy=0;entryPerimeter=0;" edge="1" parent="1" source="14AHIhhmMk3qozCd8esS-4" target="14AHIhhmMk3qozCd8esS-1">
          <mxGeometry width="50" height="50" relative="1" as="geometry">
            <mxPoint x="500" y="380" as="sourcePoint" />
            <mxPoint x="550" y="330" as="targetPoint" />
          </mxGeometry>
        </mxCell>
        <mxCell id="14AHIhhmMk3qozCd8esS-9" value="" style="endArrow=classic;html=1;rounded=0;exitX=1;exitY=1;exitDx=0;exitDy=0;exitPerimeter=0;entryX=0;entryY=0;entryDx=45;entryDy=0;entryPerimeter=0;" edge="1" parent="1" source="14AHIhhmMk3qozCd8esS-4" target="14AHIhhmMk3qozCd8esS-3">
          <mxGeometry width="50" height="50" relative="1" as="geometry">
            <mxPoint x="470" y="220" as="sourcePoint" />
            <mxPoint x="550" y="330" as="targetPoint" />
          </mxGeometry>
        </mxCell>
        <mxCell id="14AHIhhmMk3qozCd8esS-11" value="" style="endArrow=classic;html=1;rounded=0;exitX=0.5;exitY=1;exitDx=0;exitDy=0;exitPerimeter=0;entryX=0;entryY=0;entryDx=45;entryDy=0;entryPerimeter=0;" edge="1" parent="1" source="14AHIhhmMk3qozCd8esS-4" target="14AHIhhmMk3qozCd8esS-2">
          <mxGeometry width="50" height="50" relative="1" as="geometry">
            <mxPoint x="500" y="380" as="sourcePoint" />
            <mxPoint x="550" y="330" as="targetPoint" />
          </mxGeometry>
        </mxCell>
        <mxCell id="14AHIhhmMk3qozCd8esS-12" value="client" style="triangle;whiteSpace=wrap;html=1;" vertex="1" parent="1">
          <mxGeometry x="190" y="50" width="60" height="80" as="geometry" />
        </mxCell>
        <mxCell id="14AHIhhmMk3qozCd8esS-15" style="edgeStyle=orthogonalEdgeStyle;rounded=0;orthogonalLoop=1;jettySize=auto;html=1;exitX=1;exitY=0.5;exitDx=0;exitDy=0;entryX=0;entryY=0;entryDx=50;entryDy=0;entryPerimeter=0;" edge="1" parent="1" source="14AHIhhmMk3qozCd8esS-12" target="14AHIhhmMk3qozCd8esS-4">
          <mxGeometry relative="1" as="geometry" />
        </mxCell>
        <mxCell id="14AHIhhmMk3qozCd8esS-16" value="&lt;div&gt;&lt;br&gt;&lt;/div&gt;service&lt;div&gt;&lt;br&gt;&lt;/div&gt;&lt;div&gt;NodePort&lt;/div&gt;" style="shape=note;whiteSpace=wrap;html=1;backgroundOutline=1;darkOpacity=0.05;" vertex="1" parent="1">
          <mxGeometry x="330" y="380" width="80" height="90" as="geometry" />
        </mxCell>
        <mxCell id="14AHIhhmMk3qozCd8esS-17" value="&lt;div&gt;&lt;br&gt;&lt;/div&gt;service&lt;div&gt;&lt;br&gt;&lt;/div&gt;&lt;div&gt;NodePort&lt;/div&gt;" style="shape=note;whiteSpace=wrap;html=1;backgroundOutline=1;darkOpacity=0.05;" vertex="1" parent="1">
          <mxGeometry x="484" y="380" width="80" height="90" as="geometry" />
        </mxCell>
        <mxCell id="14AHIhhmMk3qozCd8esS-18" value="" style="endArrow=classic;html=1;rounded=0;exitX=0;exitY=0;exitDx=65;exitDy=70;exitPerimeter=0;entryX=0;entryY=0;entryDx=50;entryDy=0;entryPerimeter=0;" edge="1" parent="1" source="14AHIhhmMk3qozCd8esS-1" target="14AHIhhmMk3qozCd8esS-17">
          <mxGeometry width="50" height="50" relative="1" as="geometry">
            <mxPoint x="290" y="360" as="sourcePoint" />
            <mxPoint x="440" y="470" as="targetPoint" />
          </mxGeometry>
        </mxCell>
        <mxCell id="14AHIhhmMk3qozCd8esS-19" value="" style="endArrow=classic;html=1;rounded=0;entryX=0;entryY=0;entryDx=50;entryDy=0;entryPerimeter=0;exitX=0;exitY=0;exitDx=65;exitDy=70;exitPerimeter=0;" edge="1" parent="1" source="14AHIhhmMk3qozCd8esS-1" target="14AHIhhmMk3qozCd8esS-16">
          <mxGeometry width="50" height="50" relative="1" as="geometry">
            <mxPoint x="295" y="360" as="sourcePoint" />
            <mxPoint x="544" y="420" as="targetPoint" />
          </mxGeometry>
        </mxCell>
        <mxCell id="14AHIhhmMk3qozCd8esS-20" value="" style="endArrow=classic;html=1;rounded=0;exitX=0;exitY=0;exitDx=65;exitDy=70;exitPerimeter=0;entryX=0;entryY=0;entryDx=50;entryDy=0;entryPerimeter=0;" edge="1" parent="1" source="14AHIhhmMk3qozCd8esS-2" target="14AHIhhmMk3qozCd8esS-17">
          <mxGeometry width="50" height="50" relative="1" as="geometry">
            <mxPoint x="430" y="350" as="sourcePoint" />
            <mxPoint x="440" y="430" as="targetPoint" />
          </mxGeometry>
        </mxCell>
        <mxCell id="14AHIhhmMk3qozCd8esS-21" value="" style="endArrow=classic;html=1;rounded=0;exitX=0;exitY=0;exitDx=65;exitDy=70;exitPerimeter=0;entryX=0;entryY=0;entryDx=50;entryDy=0;entryPerimeter=0;" edge="1" parent="1" source="14AHIhhmMk3qozCd8esS-2" target="14AHIhhmMk3qozCd8esS-16">
          <mxGeometry width="50" height="50" relative="1" as="geometry">
            <mxPoint x="400" y="370" as="sourcePoint" />
            <mxPoint x="350" y="410" as="targetPoint" />
          </mxGeometry>
        </mxCell>
        <mxCell id="14AHIhhmMk3qozCd8esS-22" value="" style="endArrow=classic;html=1;rounded=0;entryX=0;entryY=0;entryDx=50;entryDy=0;entryPerimeter=0;exitX=0;exitY=0;exitDx=65;exitDy=70;exitPerimeter=0;" edge="1" parent="1" source="14AHIhhmMk3qozCd8esS-3" target="14AHIhhmMk3qozCd8esS-17">
          <mxGeometry width="50" height="50" relative="1" as="geometry">
            <mxPoint x="590" y="350" as="sourcePoint" />
            <mxPoint x="600" y="420" as="targetPoint" />
          </mxGeometry>
        </mxCell>
        <mxCell id="14AHIhhmMk3qozCd8esS-23" value="" style="endArrow=classic;html=1;rounded=0;exitX=0;exitY=0;exitDx=65;exitDy=70;exitPerimeter=0;entryX=0;entryY=0;entryDx=50;entryDy=0;entryPerimeter=0;" edge="1" parent="1" source="14AHIhhmMk3qozCd8esS-3" target="14AHIhhmMk3qozCd8esS-16">
          <mxGeometry width="50" height="50" relative="1" as="geometry">
            <mxPoint x="305" y="370" as="sourcePoint" />
            <mxPoint x="350" y="410" as="targetPoint" />
          </mxGeometry>
        </mxCell>
        <object label="Back-end Pod&lt;div&gt;django&lt;/div&gt;&lt;div&gt;query&lt;/div&gt;" pod="" id="14AHIhhmMk3qozCd8esS-25">
          <mxCell style="shape=cube;whiteSpace=wrap;html=1;boundedLbl=1;backgroundOutline=1;darkOpacity=0.05;darkOpacity2=0.1;" vertex="1" parent="1">
            <mxGeometry x="386.5" y="520" width="110" height="70" as="geometry" />
          </mxCell>
        </object>
        <object label="Back-end Pod&lt;div&gt;django&lt;/div&gt;&lt;div&gt;query&lt;/div&gt;" pod="" id="14AHIhhmMk3qozCd8esS-26">
          <mxCell style="shape=cube;whiteSpace=wrap;html=1;boundedLbl=1;backgroundOutline=1;darkOpacity=0.05;darkOpacity2=0.1;" vertex="1" parent="1">
            <mxGeometry x="291.5" y="520" width="110" height="70" as="geometry" />
          </mxCell>
        </object>
        <object label="Back-end Pod&lt;div&gt;django&lt;/div&gt;&lt;div&gt;query&lt;/div&gt;" pod="" id="14AHIhhmMk3qozCd8esS-27">
          <mxCell style="shape=cube;whiteSpace=wrap;html=1;boundedLbl=1;backgroundOutline=1;darkOpacity=0.05;darkOpacity2=0.1;" vertex="1" parent="1">
            <mxGeometry x="196.5" y="520" width="110" height="70" as="geometry" />
          </mxCell>
        </object>
        <object label="Back-end Pod&lt;div&gt;java&lt;/div&gt;&lt;div&gt;query&lt;/div&gt;" pod="" id="14AHIhhmMk3qozCd8esS-29">
          <mxCell style="shape=cube;whiteSpace=wrap;html=1;boundedLbl=1;backgroundOutline=1;darkOpacity=0.05;darkOpacity2=0.1;" vertex="1" parent="1">
            <mxGeometry x="617.5" y="520" width="110" height="70" as="geometry" />
          </mxCell>
        </object>
        <object label="Back-end Pod&lt;div&gt;java&lt;/div&gt;&lt;div&gt;query&lt;/div&gt;" pod="" id="14AHIhhmMk3qozCd8esS-30">
          <mxCell style="shape=cube;whiteSpace=wrap;html=1;boundedLbl=1;backgroundOutline=1;darkOpacity=0.05;darkOpacity2=0.1;" vertex="1" parent="1">
            <mxGeometry x="522.5" y="520" width="110" height="70" as="geometry" />
          </mxCell>
        </object>
        <mxCell id="14AHIhhmMk3qozCd8esS-32" value="weather data&lt;div&gt;query&lt;/div&gt;" style="shape=curlyBracket;whiteSpace=wrap;html=1;rounded=1;labelPosition=left;verticalLabelPosition=middle;align=right;verticalAlign=middle;size=0.5;" vertex="1" parent="1">
          <mxGeometry x="162.5" y="520" width="20" height="70" as="geometry" />
        </mxCell>
        <mxCell id="14AHIhhmMk3qozCd8esS-34" value="rds database" style="ellipse;shape=cloud;whiteSpace=wrap;html=1;" vertex="1" parent="1">
          <mxGeometry x="212.5" y="630" width="120" height="80" as="geometry" />
        </mxCell>
        <mxCell id="14AHIhhmMk3qozCd8esS-35" value="database" style="shape=cylinder3;whiteSpace=wrap;html=1;boundedLbl=1;backgroundOutline=1;size=15;" vertex="1" parent="1">
          <mxGeometry x="340" y="650" width="60" height="80" as="geometry" />
        </mxCell>
        <mxCell id="14AHIhhmMk3qozCd8esS-41" style="edgeStyle=orthogonalEdgeStyle;rounded=0;orthogonalLoop=1;jettySize=auto;html=1;exitX=0;exitY=0.65;exitDx=0;exitDy=0;exitPerimeter=0;entryX=0.5;entryY=0;entryDx=0;entryDy=0;" edge="1" parent="1" source="14AHIhhmMk3qozCd8esS-36" target="14AHIhhmMk3qozCd8esS-37">
          <mxGeometry relative="1" as="geometry">
            <Array as="points">
              <mxPoint x="190" y="752" />
              <mxPoint x="172" y="752" />
            </Array>
          </mxGeometry>
        </mxCell>
        <mxCell id="14AHIhhmMk3qozCd8esS-36" value="pvc" style="shape=tape;whiteSpace=wrap;html=1;" vertex="1" parent="1">
          <mxGeometry x="232.5" y="720" width="80" height="50" as="geometry" />
        </mxCell>
        <mxCell id="14AHIhhmMk3qozCd8esS-37" value="pv" style="shape=document;whiteSpace=wrap;html=1;boundedLbl=1;" vertex="1" parent="1">
          <mxGeometry x="127.5" y="770" width="90" height="60" as="geometry" />
        </mxCell>
        <mxCell id="14AHIhhmMk3qozCd8esS-42" value="chat-room data query" style="shape=curlyBracket;whiteSpace=wrap;html=1;rounded=1;flipH=1;labelPosition=right;verticalLabelPosition=middle;align=left;verticalAlign=middle;size=0.5;" vertex="1" parent="1">
          <mxGeometry x="732.5" y="520" width="20" height="70" as="geometry" />
        </mxCell>
        <mxCell id="14AHIhhmMk3qozCd8esS-43" value="" style="endArrow=classic;html=1;rounded=0;exitX=0.5;exitY=1;exitDx=0;exitDy=0;exitPerimeter=0;entryX=0;entryY=0;entryDx=45;entryDy=0;entryPerimeter=0;" edge="1" parent="1" source="14AHIhhmMk3qozCd8esS-16" target="14AHIhhmMk3qozCd8esS-27">
          <mxGeometry width="50" height="50" relative="1" as="geometry">
            <mxPoint x="510" y="410" as="sourcePoint" />
            <mxPoint x="560" y="360" as="targetPoint" />
          </mxGeometry>
        </mxCell>
        <mxCell id="14AHIhhmMk3qozCd8esS-44" value="" style="endArrow=classic;html=1;rounded=0;exitX=0.5;exitY=1;exitDx=0;exitDy=0;exitPerimeter=0;entryX=0;entryY=0;entryDx=45;entryDy=0;entryPerimeter=0;" edge="1" parent="1" source="14AHIhhmMk3qozCd8esS-16" target="14AHIhhmMk3qozCd8esS-26">
          <mxGeometry width="50" height="50" relative="1" as="geometry">
            <mxPoint x="380" y="480" as="sourcePoint" />
            <mxPoint x="252" y="530" as="targetPoint" />
          </mxGeometry>
        </mxCell>
        <mxCell id="14AHIhhmMk3qozCd8esS-45" value="" style="endArrow=classic;html=1;rounded=0;entryX=0;entryY=0;entryDx=45;entryDy=0;entryPerimeter=0;exitX=0.5;exitY=1;exitDx=0;exitDy=0;exitPerimeter=0;" edge="1" parent="1" source="14AHIhhmMk3qozCd8esS-16" target="14AHIhhmMk3qozCd8esS-25">
          <mxGeometry width="50" height="50" relative="1" as="geometry">
            <mxPoint x="390" y="490" as="sourcePoint" />
            <mxPoint x="262" y="540" as="targetPoint" />
          </mxGeometry>
        </mxCell>
        <mxCell id="14AHIhhmMk3qozCd8esS-46" value="" style="endArrow=classic;html=1;rounded=0;exitX=0.5;exitY=1;exitDx=0;exitDy=0;exitPerimeter=0;entryX=0;entryY=0;entryDx=45;entryDy=0;entryPerimeter=0;" edge="1" parent="1" source="14AHIhhmMk3qozCd8esS-17" target="14AHIhhmMk3qozCd8esS-30">
          <mxGeometry width="50" height="50" relative="1" as="geometry">
            <mxPoint x="400" y="500" as="sourcePoint" />
            <mxPoint x="272" y="550" as="targetPoint" />
          </mxGeometry>
        </mxCell>
        <mxCell id="14AHIhhmMk3qozCd8esS-47" value="" style="endArrow=classic;html=1;rounded=0;exitX=0.5;exitY=1;exitDx=0;exitDy=0;exitPerimeter=0;entryX=0;entryY=0;entryDx=45;entryDy=0;entryPerimeter=0;" edge="1" parent="1" source="14AHIhhmMk3qozCd8esS-17" target="14AHIhhmMk3qozCd8esS-29">
          <mxGeometry width="50" height="50" relative="1" as="geometry">
            <mxPoint x="410" y="510" as="sourcePoint" />
            <mxPoint x="670" y="480" as="targetPoint" />
          </mxGeometry>
        </mxCell>
        <mxCell id="14AHIhhmMk3qozCd8esS-48" value="f-deployment" style="shape=card;whiteSpace=wrap;html=1;" vertex="1" parent="1">
          <mxGeometry x="107.5" y="265" width="82.5" height="60" as="geometry" />
        </mxCell>
        <mxCell id="14AHIhhmMk3qozCd8esS-49" value="bw-deployment" style="shape=card;whiteSpace=wrap;html=1;" vertex="1" parent="1">
          <mxGeometry x="10" y="525" width="82.5" height="60" as="geometry" />
        </mxCell>
        <mxCell id="14AHIhhmMk3qozCd8esS-50" value="bc-deployment" style="shape=card;whiteSpace=wrap;html=1;size=20;" vertex="1" parent="1">
          <mxGeometry x="810" y="525" width="80" height="60" as="geometry" />
        </mxCell>
        <mxCell id="14AHIhhmMk3qozCd8esS-51" value="" style="endArrow=classic;html=1;rounded=0;exitX=0.5;exitY=1;exitDx=0;exitDy=0;exitPerimeter=0;entryX=0;entryY=0;entryDx=45;entryDy=0;entryPerimeter=0;" edge="1" parent="1" source="14AHIhhmMk3qozCd8esS-16" target="14AHIhhmMk3qozCd8esS-30">
          <mxGeometry width="50" height="50" relative="1" as="geometry">
            <mxPoint x="380" y="480" as="sourcePoint" />
            <mxPoint x="347" y="530" as="targetPoint" />
          </mxGeometry>
        </mxCell>
        <mxCell id="14AHIhhmMk3qozCd8esS-52" value="" style="endArrow=classic;html=1;rounded=0;exitX=0.5;exitY=1;exitDx=0;exitDy=0;exitPerimeter=0;entryX=0;entryY=0;entryDx=45;entryDy=0;entryPerimeter=0;" edge="1" parent="1" source="14AHIhhmMk3qozCd8esS-16" target="14AHIhhmMk3qozCd8esS-29">
          <mxGeometry width="50" height="50" relative="1" as="geometry">
            <mxPoint x="390" y="490" as="sourcePoint" />
            <mxPoint x="357" y="540" as="targetPoint" />
          </mxGeometry>
        </mxCell>
        <mxCell id="14AHIhhmMk3qozCd8esS-53" value="" style="endArrow=classic;html=1;rounded=0;exitX=0.5;exitY=1;exitDx=0;exitDy=0;exitPerimeter=0;entryX=0;entryY=0;entryDx=45;entryDy=0;entryPerimeter=0;" edge="1" parent="1" source="14AHIhhmMk3qozCd8esS-17" target="14AHIhhmMk3qozCd8esS-25">
          <mxGeometry width="50" height="50" relative="1" as="geometry">
            <mxPoint x="400" y="500" as="sourcePoint" />
            <mxPoint x="367" y="550" as="targetPoint" />
          </mxGeometry>
        </mxCell>
        <mxCell id="14AHIhhmMk3qozCd8esS-54" value="" style="endArrow=classic;html=1;rounded=0;exitX=0.5;exitY=1;exitDx=0;exitDy=0;exitPerimeter=0;entryX=0;entryY=0;entryDx=45;entryDy=0;entryPerimeter=0;" edge="1" parent="1" source="14AHIhhmMk3qozCd8esS-17" target="14AHIhhmMk3qozCd8esS-26">
          <mxGeometry width="50" height="50" relative="1" as="geometry">
            <mxPoint x="410" y="510" as="sourcePoint" />
            <mxPoint x="377" y="560" as="targetPoint" />
          </mxGeometry>
        </mxCell>
        <mxCell id="14AHIhhmMk3qozCd8esS-55" value="" style="endArrow=classic;html=1;rounded=0;exitX=0.5;exitY=1;exitDx=0;exitDy=0;exitPerimeter=0;entryX=0;entryY=0;entryDx=45;entryDy=0;entryPerimeter=0;" edge="1" parent="1" source="14AHIhhmMk3qozCd8esS-17" target="14AHIhhmMk3qozCd8esS-27">
          <mxGeometry width="50" height="50" relative="1" as="geometry">
            <mxPoint x="420" y="520" as="sourcePoint" />
            <mxPoint x="387" y="570" as="targetPoint" />
          </mxGeometry>
        </mxCell>
        <mxCell id="14AHIhhmMk3qozCd8esS-56" style="edgeStyle=orthogonalEdgeStyle;rounded=0;orthogonalLoop=1;jettySize=auto;html=1;exitX=0.5;exitY=1;exitDx=0;exitDy=0;exitPerimeter=0;entryX=1;entryY=0.65;entryDx=0;entryDy=0;entryPerimeter=0;" edge="1" parent="1" source="14AHIhhmMk3qozCd8esS-35" target="14AHIhhmMk3qozCd8esS-36">
          <mxGeometry relative="1" as="geometry" />
        </mxCell>
        <object label="Back-end Pod&lt;div&gt;&lt;span style=&quot;background-color: initial;&quot;&gt;python&lt;/span&gt;&lt;br&gt;&lt;/div&gt;&lt;div&gt;input value&lt;/div&gt;" pod="" id="14AHIhhmMk3qozCd8esS-58">
          <mxCell style="shape=cube;whiteSpace=wrap;html=1;boundedLbl=1;backgroundOutline=1;darkOpacity=0.05;darkOpacity2=0.1;" vertex="1" parent="1">
            <mxGeometry x="617.5" y="720" width="110" height="70" as="geometry" />
          </mxCell>
        </object>
        <object label="Back-end Pod&lt;div&gt;python&lt;/div&gt;&lt;div&gt;input value&lt;/div&gt;" pod="" id="14AHIhhmMk3qozCd8esS-59">
          <mxCell style="shape=cube;whiteSpace=wrap;html=1;boundedLbl=1;backgroundOutline=1;darkOpacity=0.05;darkOpacity2=0.1;" vertex="1" parent="1">
            <mxGeometry x="522.5" y="720" width="110" height="70" as="geometry" />
          </mxCell>
        </object>
        <mxCell id="14AHIhhmMk3qozCd8esS-65" value="" style="endArrow=classic;html=1;rounded=0;exitX=0;exitY=0;exitDx=65;exitDy=70;exitPerimeter=0;entryX=0.5;entryY=0;entryDx=0;entryDy=0;entryPerimeter=0;" edge="1" parent="1" source="14AHIhhmMk3qozCd8esS-30" target="14AHIhhmMk3qozCd8esS-35">
          <mxGeometry width="50" height="50" relative="1" as="geometry">
            <mxPoint x="235" y="610" as="sourcePoint" />
            <mxPoint x="434" y="660" as="targetPoint" />
          </mxGeometry>
        </mxCell>
        <mxCell id="14AHIhhmMk3qozCd8esS-66" value="" style="endArrow=classic;html=1;rounded=0;entryX=0.5;entryY=0;entryDx=0;entryDy=0;entryPerimeter=0;exitX=0;exitY=0;exitDx=65;exitDy=70;exitPerimeter=0;" edge="1" parent="1" source="14AHIhhmMk3qozCd8esS-27" target="14AHIhhmMk3qozCd8esS-35">
          <mxGeometry width="50" height="50" relative="1" as="geometry">
            <mxPoint x="235" y="610" as="sourcePoint" />
            <mxPoint x="280" y="660" as="targetPoint" />
          </mxGeometry>
        </mxCell>
        <mxCell id="14AHIhhmMk3qozCd8esS-67" value="" style="endArrow=classic;html=1;rounded=0;exitX=0;exitY=0;exitDx=65;exitDy=70;exitPerimeter=0;entryX=0.5;entryY=0;entryDx=0;entryDy=0;entryPerimeter=0;" edge="1" parent="1" source="14AHIhhmMk3qozCd8esS-29" target="14AHIhhmMk3qozCd8esS-35">
          <mxGeometry width="50" height="50" relative="1" as="geometry">
            <mxPoint x="350" y="610" as="sourcePoint" />
            <mxPoint x="434" y="660" as="targetPoint" />
          </mxGeometry>
        </mxCell>
        <mxCell id="14AHIhhmMk3qozCd8esS-70" value="" style="endArrow=classic;html=1;rounded=0;exitX=0;exitY=0;exitDx=65;exitDy=70;exitPerimeter=0;entryX=0.5;entryY=0;entryDx=0;entryDy=0;entryPerimeter=0;" edge="1" parent="1" source="14AHIhhmMk3qozCd8esS-25" target="14AHIhhmMk3qozCd8esS-35">
          <mxGeometry width="50" height="50" relative="1" as="geometry">
            <mxPoint x="462.5" y="600" as="sourcePoint" />
            <mxPoint x="277.5" y="650" as="targetPoint" />
          </mxGeometry>
        </mxCell>
        <mxCell id="14AHIhhmMk3qozCd8esS-73" value="" style="endArrow=classic;html=1;rounded=0;exitX=0;exitY=0;exitDx=65;exitDy=70;exitPerimeter=0;entryX=0.5;entryY=0;entryDx=0;entryDy=0;entryPerimeter=0;" edge="1" parent="1" source="14AHIhhmMk3qozCd8esS-26" target="14AHIhhmMk3qozCd8esS-35">
          <mxGeometry width="50" height="50" relative="1" as="geometry">
            <mxPoint x="380" y="620" as="sourcePoint" />
            <mxPoint x="430" y="570" as="targetPoint" />
          </mxGeometry>
        </mxCell>
        <mxCell id="14AHIhhmMk3qozCd8esS-76" style="edgeStyle=orthogonalEdgeStyle;rounded=0;orthogonalLoop=1;jettySize=auto;html=1;exitX=0;exitY=0;exitDx=45;exitDy=0;exitPerimeter=0;entryX=1;entryY=0.5;entryDx=0;entryDy=0;entryPerimeter=0;" edge="1" parent="1" source="14AHIhhmMk3qozCd8esS-58" target="14AHIhhmMk3qozCd8esS-35">
          <mxGeometry relative="1" as="geometry" />
        </mxCell>
        <mxCell id="14AHIhhmMk3qozCd8esS-77" style="edgeStyle=orthogonalEdgeStyle;rounded=0;orthogonalLoop=1;jettySize=auto;html=1;exitX=0;exitY=0;exitDx=45;exitDy=0;exitPerimeter=0;entryX=1;entryY=0.5;entryDx=0;entryDy=0;entryPerimeter=0;" edge="1" parent="1" source="14AHIhhmMk3qozCd8esS-59" target="14AHIhhmMk3qozCd8esS-35">
          <mxGeometry relative="1" as="geometry" />
        </mxCell>
        <mxCell id="14AHIhhmMk3qozCd8esS-78" value="front-end web-page" style="shape=curlyBracket;whiteSpace=wrap;html=1;rounded=1;labelPosition=left;verticalLabelPosition=middle;align=right;verticalAlign=middle;size=0.5;" vertex="1" parent="1">
          <mxGeometry x="241.5" y="255" width="20" height="70" as="geometry" />
        </mxCell>
        <mxCell id="14AHIhhmMk3qozCd8esS-80" value="bs-deployment" style="shape=card;whiteSpace=wrap;html=1;size=20;" vertex="1" parent="1">
          <mxGeometry x="810" y="725" width="80" height="60" as="geometry" />
        </mxCell>
        <mxCell id="14AHIhhmMk3qozCd8esS-81" value="weather data input" style="shape=curlyBracket;whiteSpace=wrap;html=1;rounded=1;flipH=1;labelPosition=right;verticalLabelPosition=middle;align=left;verticalAlign=middle;size=0.5;" vertex="1" parent="1">
          <mxGeometry x="732.5" y="720" width="20" height="70" as="geometry" />
        </mxCell>
      </root>
    </mxGraphModel>
  </diagram>
</mxfile>
